<svg width="792" height="168" viewBox="0 0 792 168" fill="none" xmlns="http://www.w3.org/2000/svg">
  <path d="M82 84L104 62" stroke="currentColor" stroke-width="14" stroke-linecap="round" stroke-linejoin="round"/>
  <path d="M82 84L104 106" stroke="currentColor" stroke-width="14" stroke-linecap="round" stroke-linejoin="round"/>
  <path d="M146 84L124 62" stroke="currentColor" stroke-width="14" stroke-linecap="round" stroke-linejoin="round"/>
  <path d="M146 84L124 106" stroke="currentColor" stroke-width="14" stroke-linecap="round" stroke-linejoin="round"/>
  <path d="M109 126L123 42" stroke="#5EEAD4" stroke-width="12" stroke-linecap="round"/>
  <circle cx="155" cy="50" r="16" fill="#14B8A6"/>
  <path d="M149 50L154 55L163 45" stroke="white" stroke-width="5" stroke-linecap="round" stroke-linejoin="round"/>
  <path d="M223.2 114.8C206.4 114.8 193.333 110.267 184 101.2C174.8 92.1333 170.2 79.8667 170.2 64.4C170.2 48.9333 174.867 36.6667 184.2 27.6C193.667 18.4 206.867 13.8 223.8 13.8C239.133 13.8 251.267 17.7333 260.2 25.6L251.2 45.2C243.333 38.6667 234.4 35.4 224.4 35.4C215.333 35.4 208.2 38 203 43.2C197.8 48.2667 195.2 55.3333 195.2 64.4C195.2 73.4667 197.733 80.6 202.8 85.8C207.867 91 214.867 93.6 223.8 93.6C232.2 93.6 239.267 91.6 245 87.6V74.8H221.8V55.8H269.2V99.2C256.667 109.6 241.333 114.8 223.2 114.8Z" fill="currentColor"/>
  <path d="M319.132 114.8C306.732 114.8 296.532 110.933 288.532 103.2C280.532 95.3333 276.532 85.2 276.532 72.8C276.532 60.4 280.532 50.3333 288.532 42.6C296.532 34.7333 306.732 30.8 319.132 30.8C331.532 30.8 341.665 34.7333 349.532 42.6C357.532 50.3333 361.532 60.4 361.532 72.8C361.532 85.2 357.532 95.3333 349.532 103.2C341.665 110.933 331.532 114.8 319.132 114.8ZM319.132 95.8C324.999 95.8 329.732 93.6667 333.332 89.4C336.932 85.1333 338.732 79.6 338.732 72.8C338.732 66 336.932 60.4667 333.332 56.2C329.732 51.9333 324.999 49.8 319.132 49.8C313.132 49.8 308.332 51.9333 304.732 56.2C301.132 60.4667 299.332 66 299.332 72.8C299.332 79.6 301.132 85.1333 304.732 89.4C308.332 93.6667 313.132 95.8 319.132 95.8Z" fill="currentColor"/>
  <path d="M404.658 114.8C392.258 114.8 382.058 110.933 374.058 103.2C366.058 95.3333 362.058 85.2 362.058 72.8C362.058 60.4 366.058 50.3333 374.058 42.6C382.058 34.7333 392.258 30.8 404.658 30.8C417.058 30.8 427.191 34.7333 435.058 42.6C443.058 50.3333 447.058 60.4 447.058 72.8C447.058 85.2 443.058 95.3333 435.058 103.2C427.191 110.933 417.058 114.8 404.658 114.8ZM404.658 95.8C410.524 95.8 415.258 93.6667 418.858 89.4C422.458 85.1333 424.258 79.6 424.258 72.8C424.258 66 422.458 60.4667 418.858 56.2C415.258 51.9333 410.524 49.8 404.658 49.8C398.658 49.8 393.858 51.9333 390.258 56.2C386.658 60.4667 384.858 66 384.858 72.8C384.858 79.6 386.658 85.1333 390.258 89.4C393.858 93.6667 398.658 95.8 404.658 95.8Z" fill="currentColor"/>
  <path d="M513.383 114.8V104.4C507.916 111.333 500.183 114.8 490.183 114.8C479.249 114.8 470.183 110.867 462.983 103C455.783 95 452.183 84.9333 452.183 72.8C452.183 60.6667 455.783 50.6667 462.983 42.8C470.183 34.8 479.249 30.8 490.183 30.8C499.649 30.8 507.383 34.1333 513.383 40.8V0H535.583V114.8H513.383ZM494.983 95.8C500.983 95.8 505.849 93.6667 509.583 89.4C513.316 85.1333 515.183 79.6 515.183 72.8C515.183 66 513.316 60.4667 509.583 56.2C505.849 51.9333 500.983 49.8 494.983 49.8C489.116 49.8 484.383 51.9333 480.783 56.2C477.183 60.4667 475.383 66 475.383 72.8C475.383 79.6 477.183 85.1333 480.783 89.4C484.383 93.6667 489.116 95.8 494.983 95.8Z" fill="currentColor"/>
  <path d="M586.296 114.8C573.896 114.8 563.696 110.933 555.696 103.2C547.696 95.3333 543.696 85.2 543.696 72.8C543.696 60.4 547.696 50.3333 555.696 42.6C563.696 34.7333 573.896 30.8 586.296 30.8C598.696 30.8 608.829 34.7333 616.696 42.6C624.696 50.3333 628.696 60.4 628.696 72.8C628.696 85.2 624.696 95.3333 616.696 103.2C608.829 110.933 598.696 114.8 586.296 114.8ZM586.296 95.8C592.163 95.8 596.896 93.6667 600.496 89.4C604.096 85.1333 605.896 79.6 605.896 72.8C605.896 66 604.096 60.4667 600.496 56.2C596.896 51.9333 592.163 49.8 586.296 49.8C580.296 49.8 575.496 51.9333 571.896 56.2C568.296 60.4667 566.496 66 566.496 72.8C566.496 79.6 568.296 85.1333 571.896 89.4C575.496 93.6667 580.296 95.8 586.296 95.8Z" fill="currentColor"/>
  <path d="M666.617 114.8V1.8H688.817V114.8H666.617Z" fill="currentColor"/>
  <path d="M740.663 114.8C728.263 114.8 718.063 110.933 710.063 103.2C702.063 95.3333 698.063 85.2 698.063 72.8C698.063 60.4 702.063 50.3333 710.063 42.6C718.063 34.7333 728.263 30.8 740.663 30.8C753.063 30.8 763.197 34.7333 771.063 42.6C779.063 50.3333 783.063 60.4 783.063 72.8C783.063 85.2 779.063 95.3333 771.063 103.2C763.197 110.933 753.063 114.8 740.663 114.8ZM740.663 95.8C746.53 95.8 751.263 93.6667 754.863 89.4C758.463 85.1333 760.263 79.6 760.263 72.8C760.263 66 758.463 60.4667 754.863 56.2C751.263 51.9333 746.53 49.8 740.663 49.8C734.663 49.8 729.863 51.9333 726.263 56.2C722.663 60.4667 720.863 66 720.863 72.8C720.863 79.6 722.663 85.1333 726.263 89.4C729.863 93.6667 734.663 95.8 740.663 95.8Z" fill="currentColor"/>
</svg>
